<svg xmlns="http://www.w3.org/2000/svg" width="860" height="500" viewBox="0 0 860 500">
<rect width="100%" height="100%" fill="white"/>
<text x="430" y="28" text-anchor="middle" font-family="Arial" font-size="17" font-weight="bold">Event-study coefficients relative to 2022</text>
<text x="430" y="48" text-anchor="middle" font-family="Arial" font-size="12" fill="#555">AI-exposed tasks vs low-exposure physical tasks, task and year fixed effects</text>
<line x1="90" y1="257.8" x2="815" y2="257.8" stroke="#777" stroke-dasharray="4 4"/>
<line x1="607.9" y1="50" x2="607.9" y2="425" stroke="#aaa" stroke-dasharray="4 4"/>
<line x1="90" y1="50" x2="90" y2="425" stroke="#333"/>
<line x1="90" y1="425" x2="815" y2="425" stroke="#333"/>
<text x="28" y="255" transform="rotate(-90 28 255)" font-family="Arial" font-size="13">Coefficient, minutes/day</text>
<line x1="90" y1="419.5" x2="815" y2="419.5" stroke="#eee"/>
<text x="78" y="423.5" text-anchor="end" font-family="Arial" font-size="12">-1.0</text>
<line x1="90" y1="338.7" x2="815" y2="338.7" stroke="#eee"/>
<text x="78" y="342.7" text-anchor="end" font-family="Arial" font-size="12">-0.5</text>
<line x1="90" y1="257.8" x2="815" y2="257.8" stroke="#eee"/>
<text x="78" y="261.8" text-anchor="end" font-family="Arial" font-size="12">0.0</text>
<line x1="90" y1="176.9" x2="815" y2="176.9" stroke="#eee"/>
<text x="78" y="180.9" text-anchor="end" font-family="Arial" font-size="12">0.5</text>
<line x1="90" y1="96.0" x2="815" y2="96.0" stroke="#eee"/>
<text x="78" y="100.0" text-anchor="end" font-family="Arial" font-size="12">1.0</text>
<line x1="90.0" y1="272.2" x2="90.0" y2="161.5" stroke="#77a9bb" stroke-width="2"/>
<line x1="83.0" y1="272.2" x2="97.0" y2="272.2" stroke="#77a9bb" stroke-width="2"/>
<line x1="83.0" y1="161.5" x2="97.0" y2="161.5" stroke="#77a9bb" stroke-width="2"/>
<circle cx="90.0" cy="216.9" r="5" fill="#6c757d"/>
<text x="90.0" y="205.9" text-anchor="middle" font-family="Arial" font-size="11">0.25</text>
<text x="90.0" y="462" text-anchor="middle" font-family="Arial" font-size="12">2017</text>
<line x1="193.6" y1="263.4" x2="193.6" y2="108.0" stroke="#77a9bb" stroke-width="2"/>
<line x1="186.6" y1="263.4" x2="200.6" y2="263.4" stroke="#77a9bb" stroke-width="2"/>
<line x1="186.6" y1="108.0" x2="200.6" y2="108.0" stroke="#77a9bb" stroke-width="2"/>
<circle cx="193.6" cy="185.7" r="5" fill="#6c757d"/>
<text x="193.6" y="174.7" text-anchor="middle" font-family="Arial" font-size="11">0.45</text>
<text x="193.6" y="462" text-anchor="middle" font-family="Arial" font-size="12">2018</text>
<line x1="297.1" y1="252.4" x2="297.1" y2="95.5" stroke="#77a9bb" stroke-width="2"/>
<line x1="290.1" y1="252.4" x2="304.1" y2="252.4" stroke="#77a9bb" stroke-width="2"/>
<line x1="290.1" y1="95.5" x2="304.1" y2="95.5" stroke="#77a9bb" stroke-width="2"/>
<circle cx="297.1" cy="173.9" r="5" fill="#6c757d"/>
<text x="297.1" y="162.9" text-anchor="middle" font-family="Arial" font-size="11">0.52</text>
<text x="297.1" y="462" text-anchor="middle" font-family="Arial" font-size="12">2019</text>
<line x1="504.3" y1="321.3" x2="504.3" y2="200.2" stroke="#77a9bb" stroke-width="2"/>
<line x1="497.3" y1="321.3" x2="511.3" y2="321.3" stroke="#77a9bb" stroke-width="2"/>
<line x1="497.3" y1="200.2" x2="511.3" y2="200.2" stroke="#77a9bb" stroke-width="2"/>
<circle cx="504.3" cy="260.8" r="5" fill="#6c757d"/>
<text x="504.3" y="280.8" text-anchor="middle" font-family="Arial" font-size="11">-0.02</text>
<text x="504.3" y="462" text-anchor="middle" font-family="Arial" font-size="12">2021</text>
<circle cx="607.9" cy="257.8" r="5" fill="#111"/>
<text x="607.9" y="245.8" text-anchor="middle" font-family="Arial" font-size="11">baseline</text>
<text x="607.9" y="462" text-anchor="middle" font-family="Arial" font-size="12">2022</text>
<line x1="711.4" y1="325.0" x2="711.4" y2="242.4" stroke="#77a9bb" stroke-width="2"/>
<line x1="704.4" y1="325.0" x2="718.4" y2="325.0" stroke="#77a9bb" stroke-width="2"/>
<line x1="704.4" y1="242.4" x2="718.4" y2="242.4" stroke="#77a9bb" stroke-width="2"/>
<circle cx="711.4" cy="283.7" r="5" fill="#1f6f8b"/>
<text x="711.4" y="303.7" text-anchor="middle" font-family="Arial" font-size="11">-0.16</text>
<text x="711.4" y="462" text-anchor="middle" font-family="Arial" font-size="12">2023</text>
<line x1="815.0" y1="379.5" x2="815.0" y2="238.9" stroke="#77a9bb" stroke-width="2"/>
<line x1="808.0" y1="379.5" x2="822.0" y2="379.5" stroke="#77a9bb" stroke-width="2"/>
<line x1="808.0" y1="238.9" x2="822.0" y2="238.9" stroke="#77a9bb" stroke-width="2"/>
<circle cx="815.0" cy="309.2" r="5" fill="#1f6f8b"/>
<text x="815.0" y="329.2" text-anchor="middle" font-family="Arial" font-size="11">-0.32</text>
<text x="815.0" y="462" text-anchor="middle" font-family="Arial" font-size="12">2024</text>
<text x="430" y="470" text-anchor="middle" font-family="Arial" font-size="12" fill="#555">Whiskers show approximate 95% confidence intervals clustered by task</text>
</svg>