<svg xmlns="http://www.w3.org/2000/svg" width="760" height="430" viewBox="0 0 760 430">
<rect width="100%" height="100%" fill="white"/>
<line x1="70" y1="110.0" x2="730" y2="110.0" stroke="#999" stroke-dasharray="4 4"/>
<polyline points="70.0,129.6 136.0,132.1 202.0,142.9 268.0,142.3 334.0,116.3 532.0,166.9 598.0,180.6 664.0,199.8 730.0,234.1" fill="none" stroke="#2b6cb0" stroke-width="2.5"/>
<line x1="70.0" y1="191.8" x2="70.0" y2="67.4" stroke="#7397c5" stroke-width="1.4"/>
<circle cx="70.0" cy="129.6" r="4" fill="#2b6cb0"/>
<text x="70.0" y="402" text-anchor="middle" font-family="Arial" font-size="12">2014</text>
<line x1="136.0" y1="192.2" x2="136.0" y2="72.0" stroke="#7397c5" stroke-width="1.4"/>
<circle cx="136.0" cy="132.1" r="4" fill="#2b6cb0"/>
<text x="136.0" y="402" text-anchor="middle" font-family="Arial" font-size="12">2015</text>
<line x1="202.0" y1="190.0" x2="202.0" y2="95.8" stroke="#7397c5" stroke-width="1.4"/>
<circle cx="202.0" cy="142.9" r="4" fill="#2b6cb0"/>
<text x="202.0" y="402" text-anchor="middle" font-family="Arial" font-size="12">2016</text>
<line x1="268.0" y1="189.7" x2="268.0" y2="94.9" stroke="#7397c5" stroke-width="1.4"/>
<circle cx="268.0" cy="142.3" r="4" fill="#2b6cb0"/>
<text x="268.0" y="402" text-anchor="middle" font-family="Arial" font-size="12">2017</text>
<line x1="334.0" y1="153.8" x2="334.0" y2="78.8" stroke="#7397c5" stroke-width="1.4"/>
<circle cx="334.0" cy="116.3" r="4" fill="#2b6cb0"/>
<text x="334.0" y="402" text-anchor="middle" font-family="Arial" font-size="12">2018</text>
<line x1="532.0" y1="215.3" x2="532.0" y2="118.6" stroke="#7397c5" stroke-width="1.4"/>
<circle cx="532.0" cy="166.9" r="4" fill="#2b6cb0"/>
<text x="532.0" y="402" text-anchor="middle" font-family="Arial" font-size="12">2021</text>
<line x1="598.0" y1="247.6" x2="598.0" y2="113.5" stroke="#7397c5" stroke-width="1.4"/>
<circle cx="598.0" cy="180.6" r="4" fill="#2b6cb0"/>
<text x="598.0" y="402" text-anchor="middle" font-family="Arial" font-size="12">2022</text>
<line x1="664.0" y1="270.3" x2="664.0" y2="129.2" stroke="#7397c5" stroke-width="1.4"/>
<circle cx="664.0" cy="199.8" r="4" fill="#2b6cb0"/>
<text x="664.0" y="402" text-anchor="middle" font-family="Arial" font-size="12">2023</text>
<line x1="730.0" y1="337.6" x2="730.0" y2="130.6" stroke="#7397c5" stroke-width="1.4"/>
<circle cx="730.0" cy="234.1" r="4" fill="#2b6cb0"/>
<text x="730.0" y="402" text-anchor="middle" font-family="Arial" font-size="12">2024</text>
<line x1="70" y1="35" x2="70" y2="370" stroke="#333"/>
<line x1="70" y1="370" x2="730" y2="370" stroke="#333"/>
<text x="20" y="235" transform="rotate(-90 20 235)" font-family="Arial" font-size="13">DiD event coefficient, minutes/day</text>
<text x="380" y="24" text-anchor="middle" font-family="Arial" font-size="15" font-weight="bold">High-exposure vs low-exposure activity trend, 2019 baseline</text>
</svg>