<svg xmlns="http://www.w3.org/2000/svg" width="980" height="620" viewBox="0 0 980 620">
<rect width="100%" height="100%" fill="white"/>
<text x="490" y="24" text-anchor="middle" font-family="Arial" font-size="16" font-weight="bold">AI-exposed task detail: post minus pre minutes/day</text>
<line x1="785.9" y1="35" x2="785.9" y2="580" stroke="#555"/>
<text x="320" y="54.1" text-anchor="end" font-family="Arial" font-size="11">060301 Research/homework for class for degree...</text>
<rect x="386.1" y="40.4" width="399.7" height="19.4" fill="#a85b2a"/>
<text x="380.1" y="54.1" text-anchor="end" font-family="Arial" font-size="11">-1.22</text>
<text x="320" y="84.4" text-anchor="end" font-family="Arial" font-size="11">030201 Homework (hh children)</text>
<rect x="703.4" y="70.7" width="82.5" height="19.4" fill="#a85b2a"/>
<text x="697.4" y="84.4" text-anchor="end" font-family="Arial" font-size="11">-0.25</text>
<text x="320" y="114.7" text-anchor="end" font-family="Arial" font-size="11">020903 HH & personal mail & messages (except ...</text>
<rect x="713.2" y="101.0" width="72.6" height="19.4" fill="#a85b2a"/>
<text x="707.2" y="114.7" text-anchor="end" font-family="Arial" font-size="11">-0.22</text>
<text x="320" y="145.0" text-anchor="end" font-family="Arial" font-size="11">020901 Financial management</text>
<rect x="758.9" y="131.3" width="26.9" height="19.4" fill="#a85b2a"/>
<text x="752.9" y="145.0" text-anchor="end" font-family="Arial" font-size="11">-0.08</text>
<text x="320" y="175.2" text-anchor="end" font-family="Arial" font-size="11">080201 Banking</text>
<rect x="762.1" y="161.6" width="23.8" height="19.4" fill="#a85b2a"/>
<text x="756.1" y="175.2" text-anchor="end" font-family="Arial" font-size="11">-0.07</text>
<text x="320" y="205.5" text-anchor="end" font-family="Arial" font-size="11">060399 Research/homework n.e.c.*</text>
<rect x="764.1" y="191.8" width="21.7" height="19.4" fill="#a85b2a"/>
<text x="758.1" y="205.5" text-anchor="end" font-family="Arial" font-size="11">-0.07</text>
<text x="320" y="235.8" text-anchor="end" font-family="Arial" font-size="11">100103 Obtaining licenses & paying fines, fee...</text>
<rect x="777.7" y="222.1" width="8.2" height="19.4" fill="#a85b2a"/>
<text x="771.7" y="235.8" text-anchor="end" font-family="Arial" font-size="11">-0.03</text>
<text x="320" y="266.1" text-anchor="end" font-family="Arial" font-size="11">080301 Using legal services</text>
<rect x="778.7" y="252.4" width="7.2" height="19.4" fill="#a85b2a"/>
<text x="772.7" y="266.1" text-anchor="end" font-family="Arial" font-size="11">-0.02</text>
<text x="320" y="296.4" text-anchor="end" font-family="Arial" font-size="11">080399 Using legal services, n.e.c.*</text>
<rect x="783.6" y="282.7" width="2.2" height="19.4" fill="#a85b2a"/>
<text x="777.6" y="296.4" text-anchor="end" font-family="Arial" font-size="11">-0.01</text>
<text x="320" y="326.6" text-anchor="end" font-family="Arial" font-size="11">100199 Using government services, n.e.c.*</text>
<rect x="785.9" y="313.0" width="0.7" height="19.4" fill="#1f6f8b"/>
<text x="792.5" y="326.6" text-anchor="start" font-family="Arial" font-size="11">0.00</text>
<text x="320" y="356.9" text-anchor="end" font-family="Arial" font-size="11">080299 Using financial services and banking, ...</text>
<rect x="785.9" y="343.2" width="2.0" height="19.4" fill="#1f6f8b"/>
<text x="793.9" y="356.9" text-anchor="start" font-family="Arial" font-size="11">0.01</text>
<text x="320" y="387.2" text-anchor="end" font-family="Arial" font-size="11">080499 Using medical services, n.e.c.*</text>
<rect x="785.9" y="373.5" width="4.3" height="19.4" fill="#1f6f8b"/>
<text x="796.2" y="387.2" text-anchor="start" font-family="Arial" font-size="11">0.01</text>
<text x="320" y="417.5" text-anchor="end" font-family="Arial" font-size="11">080401 Using health and care services outside...</text>
<rect x="785.9" y="403.8" width="5.2" height="19.4" fill="#1f6f8b"/>
<text x="797.0" y="417.5" text-anchor="start" font-family="Arial" font-size="11">0.02</text>
<text x="320" y="447.8" text-anchor="end" font-family="Arial" font-size="11">080402 Using in-home health and care services</text>
<rect x="785.9" y="434.1" width="7.7" height="19.4" fill="#1f6f8b"/>
<text x="799.6" y="447.8" text-anchor="start" font-family="Arial" font-size="11">0.02</text>
<text x="320" y="478.0" text-anchor="end" font-family="Arial" font-size="11">060302 Research/homework for class for pers. ...</text>
<rect x="785.9" y="464.3" width="19.6" height="19.4" fill="#1f6f8b"/>
<text x="811.4" y="478.0" text-anchor="start" font-family="Arial" font-size="11">0.06</text>
<text x="320" y="508.3" text-anchor="end" font-family="Arial" font-size="11">020904 HH & personal e-mail and messages</text>
<rect x="785.9" y="494.6" width="21.6" height="19.4" fill="#1f6f8b"/>
<text x="813.5" y="508.3" text-anchor="start" font-family="Arial" font-size="11">0.07</text>
<text x="320" y="538.6" text-anchor="end" font-family="Arial" font-size="11">080202 Using other financial services</text>
<rect x="785.9" y="524.9" width="25.3" height="19.4" fill="#1f6f8b"/>
<text x="817.1" y="538.6" text-anchor="start" font-family="Arial" font-size="11">0.08</text>
<text x="320" y="568.9" text-anchor="end" font-family="Arial" font-size="11">020902 Household & personal organization and ...</text>
<rect x="785.9" y="555.2" width="68.0" height="19.4" fill="#1f6f8b"/>
<text x="859.9" y="568.9" text-anchor="start" font-family="Arial" font-size="11">0.21</text>
</svg>