<svg xmlns="http://www.w3.org/2000/svg" width="820" height="450" viewBox="0 0 820 450">
<rect width="100%" height="100%" fill="white"/>
<line x1="75" y1="35" x2="75" y2="380" stroke="#333"/>
<line x1="75" y1="380" x2="785" y2="380" stroke="#333"/>
<text x="410" y="24" text-anchor="middle" font-family="Arial" font-size="16" font-weight="bold">ATUS bundle minutes per day, weighted by TUFNWGTP</text>
<text x="24" y="230" transform="rotate(-90 24 230)" font-family="Arial" font-size="13">Minutes per day</text>
<line x1="75" y1="380.0" x2="785" y2="380.0" stroke="#eee"/>
<text x="65" y="384.0" text-anchor="end" font-family="Arial" font-size="12">0</text>
<line x1="75" y1="324.7" x2="785" y2="324.7" stroke="#eee"/>
<text x="65" y="328.7" text-anchor="end" font-family="Arial" font-size="12">20</text>
<line x1="75" y1="269.4" x2="785" y2="269.4" stroke="#eee"/>
<text x="65" y="273.4" text-anchor="end" font-family="Arial" font-size="12">40</text>
<line x1="75" y1="214.1" x2="785" y2="214.1" stroke="#eee"/>
<text x="65" y="218.1" text-anchor="end" font-family="Arial" font-size="12">60</text>
<line x1="75" y1="158.9" x2="785" y2="158.9" stroke="#eee"/>
<text x="65" y="162.9" text-anchor="end" font-family="Arial" font-size="12">80</text>
<line x1="75" y1="103.6" x2="785" y2="103.6" stroke="#eee"/>
<text x="65" y="107.6" text-anchor="end" font-family="Arial" font-size="12">100</text>
<line x1="75" y1="48.3" x2="785" y2="48.3" stroke="#eee"/>
<text x="65" y="52.3" text-anchor="end" font-family="Arial" font-size="12">120</text>
<text x="75.0" y="416" text-anchor="middle" font-family="Arial" font-size="12">2017</text>
<text x="176.4" y="416" text-anchor="middle" font-family="Arial" font-size="12">2018</text>
<text x="277.9" y="416" text-anchor="middle" font-family="Arial" font-size="12">2019</text>
<text x="480.7" y="416" text-anchor="middle" font-family="Arial" font-size="12">2021</text>
<text x="582.1" y="416" text-anchor="middle" font-family="Arial" font-size="12">2022</text>
<text x="683.6" y="416" text-anchor="middle" font-family="Arial" font-size="12">2023</text>
<text x="785.0" y="416" text-anchor="middle" font-family="Arial" font-size="12">2024</text>
<line x1="582.1" y1="35" x2="582.1" y2="380" stroke="#999" stroke-dasharray="4 4"/>
<text x="590.1" y="51" font-family="Arial" font-size="12" fill="#555">2022 baseline</text>
<polyline points="75.0,309.7 176.4,306.6 277.9,303.9 480.7,303.7 582.1,310.5 683.6,312.7 785.0,309.4" fill="none" stroke="#1f6f8b" stroke-width="2.6"/>
<circle cx="75.0" cy="309.7" r="4" fill="#1f6f8b"/>
<circle cx="176.4" cy="306.6" r="4" fill="#1f6f8b"/>
<circle cx="277.9" cy="303.9" r="4" fill="#1f6f8b"/>
<circle cx="480.7" cy="303.7" r="4" fill="#1f6f8b"/>
<circle cx="582.1" cy="310.5" r="4" fill="#1f6f8b"/>
<circle cx="683.6" cy="312.7" r="4" fill="#1f6f8b"/>
<circle cx="785.0" cy="309.4" r="4" fill="#1f6f8b"/>
<line x1="90" y1="432" x2="118" y2="432" stroke="#1f6f8b" stroke-width="3"/>
<text x="126" y="436" font-family="Arial" font-size="13">AI-exposed bundle</text>
<polyline points="75.0,110.3 176.4,117.1 277.9,118.2 480.7,89.8 582.1,97.9 683.6,91.7 785.0,80.0" fill="none" stroke="#a85b2a" stroke-width="2.6"/>
<circle cx="75.0" cy="110.3" r="4" fill="#a85b2a"/>
<circle cx="176.4" cy="117.1" r="4" fill="#a85b2a"/>
<circle cx="277.9" cy="118.2" r="4" fill="#a85b2a"/>
<circle cx="480.7" cy="89.8" r="4" fill="#a85b2a"/>
<circle cx="582.1" cy="97.9" r="4" fill="#a85b2a"/>
<circle cx="683.6" cy="91.7" r="4" fill="#a85b2a"/>
<circle cx="785.0" cy="80.0" r="4" fill="#a85b2a"/>
<line x1="340" y1="432" x2="368" y2="432" stroke="#a85b2a" stroke-width="3"/>
<text x="376" y="436" font-family="Arial" font-size="13">Low-exposure physical bundle</text>
</svg>