<svg xmlns="http://www.w3.org/2000/svg" width="820" height="450" viewBox="0 0 820 450">
<rect width="100%" height="100%" fill="white"/>
<line x1="75" y1="35" x2="75" y2="380" stroke="#333"/>
<line x1="75" y1="380" x2="785" y2="380" stroke="#333"/>
<text x="410" y="24" text-anchor="middle" font-family="Arial" font-size="16" font-weight="bold">Respondents with positive minutes in each bundle</text>
<text x="24" y="230" transform="rotate(-90 24 230)" font-family="Arial" font-size="13">Unweighted sample count</text>
<line x1="75" y1="380.0" x2="785" y2="380.0" stroke="#eee"/>
<text x="65" y="384.0" text-anchor="end" font-family="Arial" font-size="12">0</text>
<line x1="75" y1="339.2" x2="785" y2="339.2" stroke="#eee"/>
<text x="65" y="343.2" text-anchor="end" font-family="Arial" font-size="12">1000</text>
<line x1="75" y1="298.4" x2="785" y2="298.4" stroke="#eee"/>
<text x="65" y="302.4" text-anchor="end" font-family="Arial" font-size="12">2000</text>
<line x1="75" y1="257.6" x2="785" y2="257.6" stroke="#eee"/>
<text x="65" y="261.6" text-anchor="end" font-family="Arial" font-size="12">3000</text>
<line x1="75" y1="216.7" x2="785" y2="216.7" stroke="#eee"/>
<text x="65" y="220.7" text-anchor="end" font-family="Arial" font-size="12">4000</text>
<line x1="75" y1="175.9" x2="785" y2="175.9" stroke="#eee"/>
<text x="65" y="179.9" text-anchor="end" font-family="Arial" font-size="12">5000</text>
<line x1="75" y1="135.1" x2="785" y2="135.1" stroke="#eee"/>
<text x="65" y="139.1" text-anchor="end" font-family="Arial" font-size="12">6000</text>
<line x1="75" y1="94.3" x2="785" y2="94.3" stroke="#eee"/>
<text x="65" y="98.3" text-anchor="end" font-family="Arial" font-size="12">7000</text>
<line x1="75" y1="53.5" x2="785" y2="53.5" stroke="#eee"/>
<text x="65" y="57.5" text-anchor="end" font-family="Arial" font-size="12">8000</text>
<text x="75.0" y="416" text-anchor="middle" font-family="Arial" font-size="12">2017</text>
<text x="176.4" y="416" text-anchor="middle" font-family="Arial" font-size="12">2018</text>
<text x="277.9" y="416" text-anchor="middle" font-family="Arial" font-size="12">2019</text>
<text x="480.7" y="416" text-anchor="middle" font-family="Arial" font-size="12">2021</text>
<text x="582.1" y="416" text-anchor="middle" font-family="Arial" font-size="12">2022</text>
<text x="683.6" y="416" text-anchor="middle" font-family="Arial" font-size="12">2023</text>
<text x="785.0" y="416" text-anchor="middle" font-family="Arial" font-size="12">2024</text>
<line x1="582.1" y1="35" x2="582.1" y2="380" stroke="#999" stroke-dasharray="4 4"/>
<text x="590.1" y="51" font-family="Arial" font-size="12" fill="#555">2022 baseline</text>
<polyline points="75.0,241.3 176.4,252.0 277.9,250.6 480.7,263.0 582.1,277.8 683.6,274.7 785.0,280.4" fill="none" stroke="#1f6f8b" stroke-width="2.6"/>
<circle cx="75.0" cy="241.3" r="4" fill="#1f6f8b"/>
<circle cx="176.4" cy="252.0" r="4" fill="#1f6f8b"/>
<circle cx="277.9" cy="250.6" r="4" fill="#1f6f8b"/>
<circle cx="480.7" cy="263.0" r="4" fill="#1f6f8b"/>
<circle cx="582.1" cy="277.8" r="4" fill="#1f6f8b"/>
<circle cx="683.6" cy="274.7" r="4" fill="#1f6f8b"/>
<circle cx="785.0" cy="280.4" r="4" fill="#1f6f8b"/>
<line x1="90" y1="432" x2="118" y2="432" stroke="#1f6f8b" stroke-width="3"/>
<text x="126" y="436" font-family="Arial" font-size="13">AI-exposed bundle</text>
<polyline points="75.0,80.0 176.4,97.3 277.9,96.2 480.7,102.8 582.1,132.0 683.6,117.3 785.0,139.6" fill="none" stroke="#a85b2a" stroke-width="2.6"/>
<circle cx="75.0" cy="80.0" r="4" fill="#a85b2a"/>
<circle cx="176.4" cy="97.3" r="4" fill="#a85b2a"/>
<circle cx="277.9" cy="96.2" r="4" fill="#a85b2a"/>
<circle cx="480.7" cy="102.8" r="4" fill="#a85b2a"/>
<circle cx="582.1" cy="132.0" r="4" fill="#a85b2a"/>
<circle cx="683.6" cy="117.3" r="4" fill="#a85b2a"/>
<circle cx="785.0" cy="139.6" r="4" fill="#a85b2a"/>
<line x1="340" y1="432" x2="368" y2="432" stroke="#a85b2a" stroke-width="3"/>
<text x="376" y="436" font-family="Arial" font-size="13">Low-exposure physical bundle</text>
</svg>