<svg xmlns="http://www.w3.org/2000/svg" width="820" height="450" viewBox="0 0 820 450">
<rect width="100%" height="100%" fill="white"/>
<line x1="75" y1="35" x2="75" y2="380" stroke="#333"/>
<line x1="75" y1="380" x2="785" y2="380" stroke="#333"/>
<text x="410" y="24" text-anchor="middle" font-family="Arial" font-size="16" font-weight="bold">Respondents with positive minutes in each bundle</text>
<text x="24" y="230" transform="rotate(-90 24 230)" font-family="Arial" font-size="13">Unweighted sample count</text>
<line x1="75" y1="380.0" x2="785" y2="380.0" stroke="#eee"/>
<text x="65" y="384.0" text-anchor="end" font-family="Arial" font-size="12">0</text>
<line x1="75" y1="341.6" x2="785" y2="341.6" stroke="#eee"/>
<text x="65" y="345.6" text-anchor="end" font-family="Arial" font-size="12">1000</text>
<line x1="75" y1="303.1" x2="785" y2="303.1" stroke="#eee"/>
<text x="65" y="307.1" text-anchor="end" font-family="Arial" font-size="12">2000</text>
<line x1="75" y1="264.7" x2="785" y2="264.7" stroke="#eee"/>
<text x="65" y="268.7" text-anchor="end" font-family="Arial" font-size="12">3000</text>
<line x1="75" y1="226.2" x2="785" y2="226.2" stroke="#eee"/>
<text x="65" y="230.2" text-anchor="end" font-family="Arial" font-size="12">4000</text>
<line x1="75" y1="187.8" x2="785" y2="187.8" stroke="#eee"/>
<text x="65" y="191.8" text-anchor="end" font-family="Arial" font-size="12">5000</text>
<line x1="75" y1="149.3" x2="785" y2="149.3" stroke="#eee"/>
<text x="65" y="153.3" text-anchor="end" font-family="Arial" font-size="12">6000</text>
<line x1="75" y1="110.9" x2="785" y2="110.9" stroke="#eee"/>
<text x="65" y="114.9" text-anchor="end" font-family="Arial" font-size="12">7000</text>
<line x1="75" y1="72.4" x2="785" y2="72.4" stroke="#eee"/>
<text x="65" y="76.4" text-anchor="end" font-family="Arial" font-size="12">8000</text>
<text x="75.0" y="416" text-anchor="middle" font-family="Arial" font-size="12">2017</text>
<text x="176.4" y="416" text-anchor="middle" font-family="Arial" font-size="12">2018</text>
<text x="277.9" y="416" text-anchor="middle" font-family="Arial" font-size="12">2019</text>
<text x="480.7" y="416" text-anchor="middle" font-family="Arial" font-size="12">2021</text>
<text x="582.1" y="416" text-anchor="middle" font-family="Arial" font-size="12">2022</text>
<text x="683.6" y="416" text-anchor="middle" font-family="Arial" font-size="12">2023</text>
<text x="785.0" y="416" text-anchor="middle" font-family="Arial" font-size="12">2024</text>
<line x1="582.1" y1="35" x2="582.1" y2="380" stroke="#999" stroke-dasharray="4 4"/>
<text x="590.1" y="51" font-family="Arial" font-size="12" fill="#555">2022 baseline</text>
<polyline points="75.0,249.3 176.4,259.4 277.9,258.1 480.7,269.8 582.1,283.7 683.6,280.8 785.0,286.2" fill="none" stroke="#1f6f8b" stroke-width="2.6"/>
<circle cx="75.0" cy="249.3" r="4" fill="#1f6f8b"/>
<circle cx="176.4" cy="259.4" r="4" fill="#1f6f8b"/>
<circle cx="277.9" cy="258.1" r="4" fill="#1f6f8b"/>
<circle cx="480.7" cy="269.8" r="4" fill="#1f6f8b"/>
<circle cx="582.1" cy="283.7" r="4" fill="#1f6f8b"/>
<circle cx="683.6" cy="280.8" r="4" fill="#1f6f8b"/>
<circle cx="785.0" cy="286.2" r="4" fill="#1f6f8b"/>
<line x1="90" y1="432" x2="118" y2="432" stroke="#1f6f8b" stroke-width="3"/>
<text x="126" y="436" font-family="Arial" font-size="13">AI-exposed bundle</text>
<polyline points="75.0,80.0 176.4,96.8 277.9,96.5 480.7,103.6 582.1,131.8 683.6,117.1 785.0,140.0" fill="none" stroke="#a85b2a" stroke-width="2.6"/>
<circle cx="75.0" cy="80.0" r="4" fill="#a85b2a"/>
<circle cx="176.4" cy="96.8" r="4" fill="#a85b2a"/>
<circle cx="277.9" cy="96.5" r="4" fill="#a85b2a"/>
<circle cx="480.7" cy="103.6" r="4" fill="#a85b2a"/>
<circle cx="582.1" cy="131.8" r="4" fill="#a85b2a"/>
<circle cx="683.6" cy="117.1" r="4" fill="#a85b2a"/>
<circle cx="785.0" cy="140.0" r="4" fill="#a85b2a"/>
<line x1="340" y1="432" x2="368" y2="432" stroke="#a85b2a" stroke-width="3"/>
<text x="376" y="436" font-family="Arial" font-size="13">Low-exposure physical bundle</text>
</svg>