<svg xmlns="http://www.w3.org/2000/svg" width="820" height="450" viewBox="0 0 820 450">
<rect width="100%" height="100%" fill="white"/>
<line x1="75" y1="35" x2="75" y2="380" stroke="#333"/>
<line x1="75" y1="380" x2="785" y2="380" stroke="#333"/>
<text x="410" y="24" text-anchor="middle" font-family="Arial" font-size="16" font-weight="bold">ATUS bundle minutes per day, weighted by TUFNWGTP</text>
<text x="24" y="230" transform="rotate(-90 24 230)" font-family="Arial" font-size="13">Minutes per day</text>
<line x1="75" y1="380.0" x2="785" y2="380.0" stroke="#eee"/>
<text x="65" y="384.0" text-anchor="end" font-family="Arial" font-size="12">0</text>
<line x1="75" y1="312.4" x2="785" y2="312.4" stroke="#eee"/>
<text x="65" y="316.4" text-anchor="end" font-family="Arial" font-size="12">20</text>
<line x1="75" y1="244.8" x2="785" y2="244.8" stroke="#eee"/>
<text x="65" y="248.8" text-anchor="end" font-family="Arial" font-size="12">40</text>
<line x1="75" y1="177.3" x2="785" y2="177.3" stroke="#eee"/>
<text x="65" y="181.3" text-anchor="end" font-family="Arial" font-size="12">60</text>
<line x1="75" y1="109.7" x2="785" y2="109.7" stroke="#eee"/>
<text x="65" y="113.7" text-anchor="end" font-family="Arial" font-size="12">80</text>
<line x1="75" y1="42.1" x2="785" y2="42.1" stroke="#eee"/>
<text x="65" y="46.1" text-anchor="end" font-family="Arial" font-size="12">100</text>
<text x="75.0" y="416" text-anchor="middle" font-family="Arial" font-size="12">2017</text>
<text x="176.4" y="416" text-anchor="middle" font-family="Arial" font-size="12">2018</text>
<text x="277.9" y="416" text-anchor="middle" font-family="Arial" font-size="12">2019</text>
<text x="480.7" y="416" text-anchor="middle" font-family="Arial" font-size="12">2021</text>
<text x="582.1" y="416" text-anchor="middle" font-family="Arial" font-size="12">2022</text>
<text x="683.6" y="416" text-anchor="middle" font-family="Arial" font-size="12">2023</text>
<text x="785.0" y="416" text-anchor="middle" font-family="Arial" font-size="12">2024</text>
<line x1="582.1" y1="35" x2="582.1" y2="380" stroke="#999" stroke-dasharray="4 4"/>
<text x="590.1" y="51" font-family="Arial" font-size="12" fill="#555">2022 baseline</text>
<polyline points="75.0,294.0 176.4,290.2 277.9,287.0 480.7,286.8 582.1,295.1 683.6,297.7 785.0,293.7" fill="none" stroke="#1f6f8b" stroke-width="2.6"/>
<circle cx="75.0" cy="294.0" r="4" fill="#1f6f8b"/>
<circle cx="176.4" cy="290.2" r="4" fill="#1f6f8b"/>
<circle cx="277.9" cy="287.0" r="4" fill="#1f6f8b"/>
<circle cx="480.7" cy="286.8" r="4" fill="#1f6f8b"/>
<circle cx="582.1" cy="295.1" r="4" fill="#1f6f8b"/>
<circle cx="683.6" cy="297.7" r="4" fill="#1f6f8b"/>
<circle cx="785.0" cy="293.7" r="4" fill="#1f6f8b"/>
<line x1="90" y1="432" x2="118" y2="432" stroke="#1f6f8b" stroke-width="3"/>
<text x="126" y="436" font-family="Arial" font-size="13">AI-exposed bundle</text>
<polyline points="75.0,108.1 176.4,116.0 277.9,116.6 480.7,91.5 582.1,95.7 683.6,93.5 785.0,80.0" fill="none" stroke="#a85b2a" stroke-width="2.6"/>
<circle cx="75.0" cy="108.1" r="4" fill="#a85b2a"/>
<circle cx="176.4" cy="116.0" r="4" fill="#a85b2a"/>
<circle cx="277.9" cy="116.6" r="4" fill="#a85b2a"/>
<circle cx="480.7" cy="91.5" r="4" fill="#a85b2a"/>
<circle cx="582.1" cy="95.7" r="4" fill="#a85b2a"/>
<circle cx="683.6" cy="93.5" r="4" fill="#a85b2a"/>
<circle cx="785.0" cy="80.0" r="4" fill="#a85b2a"/>
<line x1="340" y1="432" x2="368" y2="432" stroke="#a85b2a" stroke-width="3"/>
<text x="376" y="436" font-family="Arial" font-size="13">Low-exposure physical bundle</text>
</svg>